<?xml version="1.0" encoding="UTF-8"?>
<svg xmlns="http://www.w3.org/2000/svg" viewBox="0 0 497.79 497.79">
  <defs>
    <style>
      .cls-1 {
        fill: none;
      }

      .cls-2 {
        mix-blend-mode: multiply;
        opacity: .66;
      }

      .cls-3 {
        fill: #231f20;
      }

      .cls-4 {
        isolation: isolate;
      }
    </style>
  </defs>
  <g class="cls-4">
    <g id="Layer_1" data-name="Layer 1">
      <circle class="cls-1" cx="249.53" cy="247.48" r="247.42"/>
      <g class="cls-2">
        <path class="cls-3" d="M139.41,158.29l-3.05-.3-3.31-.78-1.5.09-1.65-.39-9.81-9.88-3.39-3.35-6.98-8.41,1.08-1.06,4.63-3.38,1.29-.95.85,1.08.85,1.08,9.92,9.35h.75s10.47-10.27,10.47-10.27l.06-.48-3.81-4.21-3.87-4.15-21.99-22.84-.16-.48-.1-.54,3.94-3.87,3.34-2.64,27.29,27.91,5.57,5.35,5.51,5.29.41,1.82,1.03,3.76.73,2.15.4,2.57-18.51,17.54Z"/>
        <path class="cls-3" d="M168.35,130.08l-8.73-3.45-4.7-1.63-4.35-7.97-4.45-7.83-3.05-5.66-5.91-11.59,6.05-16.16.19-.61.23-.55,21.03-11.2,8.05,3.46.88.22,5.77,2.36,10.62,20.74,1.45,3.25,1.38,3.29,1.45,3.42,1.59,3.35-1.46,5.21-1.76,6.9-1.38,5.51-18.99,10.05-3.91-1.11ZM186.73,111.38l-.19-.84-.25-.81-6.73-13.64-7.83-16.4-2.01-4.33-2.04-4.22-8.71,4.4-.2.27-11.32,5.94,6.65,12.83,12.81,25.23,1.21,1.33,18.63-9.77Z"/>
        <path class="cls-3" d="M209.61,110.55l-3.66-3.42-1.13-.36-4.03-3.37-.79-5.16-.79-5.16v-.92s.19-.87.19-.87l.13-.17,4.59-1.54,7.94-1.67.65.74,1.2,6.86,1.13,4.42,1.74,2.87,7.78-1.18,7.95-2.05-.95-4.75-1.1-4.73-.26-.72-.33-.64-1.5-5.36-.82-.34-19.63-2.29-4.45-1.08-6.23-.2-.56-2.67-.63-2.66-.87-5.22-.86-5.15,3.35-4.64,3.2-3.62-.1-.67,2.49-2.75.17-.87,12.87-2.42,1.84-.51,1.9-.6,2.16-.4,11.44,5.3,3.46,1.62,2.47,9.19-.51.69-13.9,2.19-.31-2.02-2.78-7.69-1-.54-10.82,1.8-.77.5,1.65,7.32,1.62,1.06,10.27,2.11,7.86,2.4,2.08.07.08.52,5.48,1.84.52-.08,2.55,1.14,1.71,8.23,1.63,8.17,1.49,6.28-2.32,3.87-3.53,4.44-2.73,3.17-24.44,4.33-3.77-2.64Z"/>
        <path class="cls-3" d="M281.82,113.73l.06-.37,1.96-11.79,1-8.43-.63-.8-13.56-2.42-9.72-1.53-.97-.17-1.91,11.03-1.72,9.53-.69.42-8.25-1.58.44-2.07,2.41-14.4,1.7-11.61,2.05-12.31,1.99-12.4,1.38-9.74.77-.02.68.04.79.29,5.66,1.44-.09.98.02.31-.05.3.15,4.02-1.27,12.22,4.37,1.37.96-.22,13.68,2.14,4.71.74.44-.31,2.04-10.47.95-6.82,4.09.78,8.39,1.68-5.33,31.25-5.4,31.24-11.18-1.93.06-.37Z"/>
        <path class="cls-3" d="M300.06,118.61l-.67-4.43-1.39-5.17,1.52-3.39,1.56-3.46,1.06-2.09.96-2.06,11.43-22.21,4.12-7.66,4.12-7.66,3.36,1.59,3.32,1.65,2.84,1.74.45.76-5.43,9.88-9.31,15.52-1.86,2.6-1.8,2.64-1.96,4.19-1.96,4.19-2.36,5.87v.78s19.17,10.53,19.17,10.53l.29-.53,2.97-6.83,5.64-11.06,5.32-10.46,9.49-17.58,10.45,5.49,1.17,1.16-2.9,4.97-2.87,5.07-15.21,28.93-3.07,7.63-1.68.54-7.57,2.14-1.32.83-2.8,1.48-8.11-3.94-16.38-9-.61-2.66Z"/>
        <path class="cls-3" d="M343.07,126.52l2.3-1.86,1.55-1.67,28.66-12.52,5.36-2.15,3.52-1.45.7-.25.6-.46,1.62-.6,1.68-.76,11.02,11.65-.25,1.17-3.51,4.88-3.87,6.37-5.11,8.58-4.47,8.6-4,7.01-5.77,5.46-5.72,5.41-2.68,2.23-2.79,2.01-1.83-1.6-5.34-5.98.88-.94,3.01-4.41,4.09-6.57,2.25-3.79-10.13-10.93-1.36-1-1.57.65-5.55,1.4-9.22,2.47-4.3.52-.52-.55,10.74-10.88ZM370.94,132.76l9.32-11.62,2.27-2.77,2.22-2.83-.04-.48-1.8,1.07-5.49,3-9.47,5.51-4.61,2.17.04.38,6.48,7.51,1.07-1.95Z"/>
        <path class="cls-3" d="M406.58,198.09l6.28-1.37.6,1.42,5.43,31.79-.38.77-1.78.36-1.69.42-4.51.61-4.49.69-5.84-33.4,6.37-1.31Z"/>
        <path class="cls-3" d="M397.3,314.34l.06-.14-12.91-10.42-.99-.94-1.29-.82-4.93-3.61-.56-.42-.7-.48,2.4-5.56,1.37-2.87,5.88.56,39.15,5.67,15.7,6.78.93.33.9.4.41.19.38.25-5.54,12.02-.95.07-30.02-6.63-.41-.02,12.56,9.35,1.69,1.59,10.94,7.96-3.87,9.21-.93-.33-.54.09-1.55-.61-22.03-5.05-3.81-1.12-5.65-1.45-.22.48,10.78,9.63,1.41,1.29,1.05.8,11.96,10.32,1.31,1.33,1.43,1.06-2.75,6.15-1.59-.71-1.53-.85-3.11-1.39-3.6-1.78-33.37-28.6-6.78-5.77-1.83-1.65-.08-.37,4.1-10.1,27.09,6.15Z"/>
        <path class="cls-3" d="M335.17,355.93l2.7-2.23.49.48.76.95,4.15,2.35,1.02.47,1.51.94,8.67,4.65,15.1-15.71-.49-.69-.6-.69-5.74-13.73-1.64-2.65,4.96-5.09,2.71,2.75,2.71,2.75,15.44,34.79.34,1.39,8.03,16.48,1.1,2.23-5.54,5.8-2,2.17-1.42,1.78-1.7,1.09-19.15-7.56-3.99-1.98-2.58-.61-23.56-9.32-11.11-10.82,9.82-9.97ZM360.96,368.38l24.46,17.07-14.33-27.69h-.43s-9.71,10.62-9.71,10.62Z"/>
        <path class="cls-3" d="M320.21,366.37l.31.09.53,1.09.6,1.05,11.29,20.04,11.33,20.1,1.27.24,10.86-6,.89.19.9,1.58.89,1.41,1.98,4.1,2.04,4.06-30.32,17.39-.48.53-.44.6-3.85,2.1-3.25-5.72-3.24-5.56,1.17-1.01,9.27-6.66,3.4-2.28-4.07-7.78-4.11-7.85-6.32-10.51-6.18-10.58-3.46-5.78,8.99-4.85Z"/>
        <path class="cls-3" d="M287.29,381.16l1.63,5.67,1.51,5.78,5.01,19.26,1.67,5.51,1.65,5.43,3.61,10.24.43.44,8.79-1.98.04.15.15.27.37.84.28.79.72,2.78.78,2.69.17.66.13.51-17.48,4.32-13.32,3.78-2.12.55-2.03-4.48-1.66-4.88,8.89-3.1.11-.18-2.98-10.56-3.68-14.13-.51-1.66-.73-1.61-4.38-16.22-2.21-6.07,1.02-1.2,11.37-2.88,1.13-.45,1.65-.27Z"/>
        <path class="cls-3" d="M264.03,386.43l.34,5.44.34,5.44.3,9.92.62,8.15,2.46,30.24-.22,4.04-1.65.2-1.57.27-9.67.59-.17-.29-.74-5.71-.68-5.87-.26-4.46-.34-4.45-1.49-20.52-1.5-20.6-.31-1.04,13.47-1.48,1.07.15Z"/>
        <path class="cls-3" d="M248.41,389.86l-2.08,10.77-8.83,50.15-.76,1.93-18.19-3.97-.91-1.26-2.45-7.64-1.5-4.99.06-1.53-2-8.01-2.88-11.81-.36-.15-1.92,3.95-12.55,26.7-15.53-3,6.59-32.17,1.19-3.39,2.23-16.36.11-.98.2-1.04,1.31-5.6.05-1.84.33-.09,8.38,1.31-2.28,18.21-2.32,16.42.82.16,5.75-9.45,3.26-5.69,7.39-13.52,1.2-2.62,1.04-1.42,6.48,1.56,1.5,6.22,2.2,9.75,6.56,25.08.37.07,5.69-30.26.92-1.59-.21-.89.68-4.72,3.89.21,6.57,1.5Z"/>
        <path class="cls-3" d="M188.2,378.93l-4.52,8.74-16.14,31.12-2.99,5.44-2.11,4.19-2.05,4.23-.87-.15-.74-.07-25.1-14.47-1.26-1.15,3.59-5.88,14.21,7.61.72-.2,4.17-9.2-.06-.21-13.27-8.04-.41-.66,5.11-9.02,3.07,2.26,10.71,6.41,2.55-4.04,2.41-3.94,3.05-5.23,3.08-5.3-.52-1.08-13.54-8.18-.43-.77,2.96-4.76,2.92-4.7.49-.24,18.55,10.24,7.44,4.21-.99,2.83Z"/>
        <path class="cls-3" d="M161.98,363.83l-2.54,1.82-1.55,1.33-1.61,1.38-14.44,12.8-2.72,2.3-2.76,2.14-3.44,2.97-1.48.74-4.62,4.26-4.62,4.26-3.07,3.14-3.02,3.09-8.03-7.93-3.42-4.05.09-.8-1.01-.2-.87-.95.7-2.7,6.69-30.25.87-6.98.85-3.77-.14-.59-.56.51-.67.62-3.76,2.95-3.71,3.12-17.72,17.06-.96-.04-.86-.04-3.98-4.77.13-.53,12.45-11.38,8.29-7.75,7.89-7.07,7.94-6.91,2.65-2.03,2.6-1.98,4.43-3.57,11.95,12.96-.87,1.73-1.46,3.1-1.22,6.27-.79,2.27-1.93,6.72-4.6,14.32-1.38,3.64-2.4,7.67-1.86,4.9.14.59,1-.82,1-.92.71-.45.71-.45,10.97-9.09,7.61-6.81,14.15-12.33,4.92,5.34-.69,1.15Z"/>
        <path class="cls-3" d="M108.69,292.93l-9.5,7.36-2.3,1.58,3.74,9.02,2.35,4.6,7.77.04,2.66.31.86-.1,2.57.1,6.53.21,3.15,7.78-1.82.74-2.38.97-10.73,4.35-11.24-.75-41.23-1.42-1.52-4.36-2.93-7.22,4.18-3.57,7.57-6.5,1.39-.81,10.6-10.09,10.35-9.91,19.1-8.07,5.25,12.56-4.43,3.18ZM86.51,310.9l-5.48,4.01-1.43.91-9.03,6.52.23.56,19.55-.9.88-.03-4.73-11.06Z"/>
        <path class="cls-3" d="M77.41,239.51l-6.37-.88-.07-1.54,4-29.7.62-.59,1.8.27,1.73.18,4.44.97,4.46.9-4.17,31.35-6.43-.97Z"/>
      </g>
    </g>
  </g>
</svg>