<?xml version="1.0" encoding="UTF-8"?>
<svg id="Layer_1" data-name="Layer 1" xmlns="http://www.w3.org/2000/svg" viewBox="0 0 348 348">
  <defs>
    <style>
      .cls-1 {
        fill: #000;
      }

      <!-- .cls-1, .cls-2 {
        stroke: #fff;
        stroke-miterlimit: 10;
      } -->

      .cls-2 {
        fill: #2e3192;
      }
    </style>
  </defs>
  <path class="cls-1" d="M174,.5C78.18.5.5,78.18.5,174s77.68,173.5,173.5,173.5,173.5-77.68,173.5-173.5S269.82.5,174,.5ZM174,186.22c-6.75,0-12.22-5.47-12.22-12.22s5.47-12.22,12.22-12.22,12.22,5.47,12.22,12.22-5.47,12.22-12.22,12.22Z"/>
  <path class="cls-2" d="M174,118.13c-30.86,0-55.87,25.01-55.87,55.87s25.01,55.87,55.87,55.87,55.87-25.01,55.87-55.87-25.01-55.87-55.87-55.87ZM174,186.22c-6.75,0-12.22-5.47-12.22-12.22s5.47-12.22,12.22-12.22,12.22,5.47,12.22,12.22-5.47,12.22-12.22,12.22Z"/>
</svg>