<?xml version="1.0" encoding="UTF-8"?>
<svg id="Layer_1" xmlns="http://www.w3.org/2000/svg" version="1.1" viewBox="0 0 250 250">
  
  <rect class="st1" x="104" y="1.4" width="42" height="99.8"/>
  <g>
    <path class="st0" d="M249.1,125c0,68.4-55.7,124.1-124.1,124.1S.9,193.4.9,125,24.9,40.7,60.7,19v55.1c-11.1,14-17.8,31.7-17.8,50.9,0,45.3,36.8,82.1,82.1,82.1s82.1-36.8,82.1-82.1-6.6-36.9-17.8-50.9V19c35.8,21.8,59.7,61.2,59.7,106Z"/>
    <rect class="st0" x="104" y="1.4" width="42" height="99.8"/>
  </g>
  <circle class="st2" cx="-267.4" cy="131" r="98.2"/>
  <rect class="st1" x="-319.8" y="-63.7" width="101.7" height="204.9"/>
  <line class="st2" x1="-267.4" y1="108.4" x2="-267.4" y2="13.3"/>
</svg>